<svg viewBox="0 0 52.61 60" xmlns="http://www.w3.org/2000/svg"><path d="m30.8 26.9-8.9 2.4c-.1 0-.1.1-.1.2v4.1c0 .1.1.2.3.2l8.9-2.4c.1 0 .1-.1.1-.2v-4.2c0-.1-.2-.2-.3-.1z"/><path d="m30.8 32.9-8.9 2.4c-.1 0-.1.1-.1.2v4.2c0 .1.1.2.3.2l8.9-2.4c.1 0 .1-.1.1-.2v-4.2c0-.1-.2-.2-.3-.2z"/><path d="m30.8 39-8.6 2.4c-.1 0-.1.1 0 .1h8.2c.4 0 .7-.3.7-.7v-1.6c0-.2-.2-.3-.3-.2z"/><path d="m22 21.7 8.6-2.4c.1 0 .1-.1 0-.1h-8.3c-.3 0-.6.3-.6.6v1.7c0 .1.2.2.3.2z"/><path d="m22 27.7 8.9-2.4c.1 0 .2-.1.2-.2v-4.1c0-.2-.2-.2-.3-.2l-8.9 2.4c-.1 0-.2.1-.2.2v4.1c0 .1.1.2.3.2z"/><path d="m20.6 43.9h11.5c.8 0 1.5-.7 1.5-1.5v-24.1c0-.9-.6-1.5-1.4-1.5h-2.9v-1c0-.3-.2-.5-.5-.5h-4.8c-.3 0-.5.2-.5.5v1h-2.9c-.8 0-1.5.7-1.5 1.5v24.1c0 .8.7 1.5 1.5 1.5zm-.6-25.6c0-.3.3-.6.6-.6h11.6c.3 0 .6.3.6.6v24.1c0 .3-.3.6-.6.6h-11.6c-.3 0-.6-.3-.6-.6z"/><path d="m43.1 9.5c-.2-.2-.2-.5-.2-.8v-2.6c0-.4 0-.7-.4-.9l-11-5.1c-.2-.1-.4-.1-.6-.1l-11.3 1.3c-.3 0-.5.3-.5.6v2.1c0 .3.3.5.5.5h9.4c.2 0 .3.2.3.3l-.2 1.1c-.3 1.3.1 3 1.1 3.6l6.6 4.7c1.1.7 2.1.6 3.1-.5 0 0 2.1-2.5 2.4-2.8q.1-.1.2 0c5.4 4.6 8.8 11.5 8.8 19.1 0 8.2-4.1 16-10.9 20.7l-.1.1q-.1.1-.1.2v1.3s0 .1.1.1c7.6-4.8 12.3-13.3 12.3-22.3.2-8.4-3.6-15.8-9.5-20.6zm-3.1 1.9-.3.4c-1.4 1.6-1.6 1.7-2.8 1l-5.2-3.8c-1.3-.8-1.4-1.8-1-3.2l.1-.6c.1-.2.3-.3.4-.2l8.7 6c.2 0 .2.2.1.4z"/><path d="m35.4 55.5h-4.2v-2.3h4.1c.4 0 .6-.3.6-.6 0-.4-.3-.7-.7-.7h-4v-2.6c0-.3-.2-.5-.5-.5h-7.5c-2.8 0-5.1 2-5.6 4.7-9.8-3.7-16.3-13.2-16.3-23.6 0-8.6 4.3-16.1 10.9-20.7.1 0 .1-.1.1-.2v-1.3s0-.1-.1 0c-7.4 4.6-12.2 12.9-12.2 22.2 0 11 6.9 20.9 17.2 24.8 0 0 .2.1.4.1v.3c.4 2.8 2.9 4.9 5.8 4.9h7.2c.3 0 .6-.2.6-.6v-2.6h4.1c.4 0 .7-.3.7-.7 0-.3-.3-.6-.6-.6zm-5.7 3c0 .1-.1.2-.2.2h-6.2c-2.2 0-4.3-1.8-4.5-4-.2-2.5 1.8-4.6 4.3-4.6h6.4c.1 0 .2.1.2.2z"/></svg>