<svg viewBox="0 0 60 60" xmlns="http://www.w3.org/2000/svg"><g><path d="m34.7 36.4-9.5 2.6c-.1 0-.1.1-.1.2v4.4c0 .1.1.2.3.2l9.4-2.6c.1 0 .2-.1.2-.2v-4.4c0-.2-.1-.3-.3-.2zm.1 6.5-9.2 2.5c-.1 0-.1.1 0 .1h8.7c.4 0 .7-.3.7-.7v-1.7c0-.2-.1-.2-.2-.2zm-.1-12.9-9.5 2.6c-.1 0-.2.1-.2.2v4.4c0 .1.2.2.3.2l9.5-2.6c.1-.1.2-.1.2-.3v-4.3c0-.2-.2-.2-.3-.2zm0-6.5-9.5 2.6c-.1 0-.2.1-.2.2v4.4c0 .1.2.2.3.2l9.5-2.6c.1-.1.2-.1.2-.3v-4.3c0-.1-.1-.2-.3-.2zm-9.5.9 9.2-2.5c.1 0 .1-.1 0-.1h-8.8c-.3 0-.6.3-.6.6v1.8c0 .2.1.2.2.2z"/><path d="m36.1 19.2h-3.1v-1.1c0-.3-.2-.5-.5-.5h-5.1c-.3 0-.5.2-.5.5v1.1h-3.1c-.9 0-1.6.7-1.6 1.6v25.7c0 .9.7 1.6 1.6 1.6h12.3c.9 0 1.6-.7 1.6-1.6v-25.7c0-.9-.7-1.6-1.6-1.6zm.7 27.3c0 .4-.3.7-.7.7h-12.2c-.4 0-.7-.3-.7-.7v-25.7c0-.4.3-.7.7-.7h12.2c.4 0 .7.3.7.7z"/><path d="m47.8 10.1c-.2-.2-.2-.5-.2-.8v-2.6c0-.5 0-.8-.4-1l-11.7-5.6c-.2-.1-.5-.1-.7-.1l-12 1.4c-.3 0-.5.3-.5.6v1.9c0 .5.4.9.9.9h9.7c.2 0 .3.2.3.4l-.2 1.1c-.3 1.4.1 3.2 1.2 3.9l7 5c1.2.7 2.3.5 3.3-.6 0 0 2.4-2.8 2.6-3 .1-.1.2-.1.2 0 5.8 5 9.4 12.4 9.4 20.3 0 14.7-12 26.7-26.7 26.7s-26.7-12-26.7-26.7c0-8.6 4.3-16.8 11.2-21.7.1-.1.2-.2.2-.3v-1.7c-8 5.2-12.9 14.2-12.9 23.8 0 15.4 12.7 28 28.2 28s28.2-12.6 28.2-28.2c0-8.5-4-16.5-10.4-21.7zm-3.3 2-.4.4c-1.5 1.7-1.7 1.8-3 1l-5.6-4.1c-1.3-.9-1.4-1.9-1-3.4l.2-.6c.1-.2.3-.3.5-.2l9.2 6.4c.2.1.2.4.1.5z"/></g></svg>