<svg viewBox="0 0 60 60" xmlns="http://www.w3.org/2000/svg"><path d="m34.2 30.1-9.5 2.6c-.1 0-.1.1-.1.2v4.4c0 .1.1.2.3.2l9.5-2.6c.1 0 .1-.1.1-.2v-4.4c0-.1-.1-.2-.3-.2zm0 6.4-9.1 2.5c-.1 0-.1.1 0 .1h8.7c.4 0 .7-.3.7-.7v-1.7c0-.1-.2-.2-.3-.2zm0-12.8-9.4 2.6c-.1 0-.2.1-.2.2v4.4c0 .1.2.2.3.2l9.4-2.6c.1 0 .2-.1.2-.2v-4.4c0-.2-.2-.3-.3-.2zm0-6.4-9.4 2.6c-.1 0-.2.1-.2.2v4.4c0 .1.2.2.3.2l9.4-2.6c.1 0 .2-.1.2-.2v-4.4c0-.2-.2-.3-.3-.2zm-9.3.9 9.1-2.5c.1 0 .1-.1 0-.1h-8.8c-.3 0-.6.3-.6.6v1.8c0 .1.2.2.3.2zm10.8-5.2h-3.1v-1.1c0-.3-.2-.5-.5-.5h-5.1c-.3 0-.5.2-.5.5v1.1h-3.1c-.9 0-1.6.7-1.6 1.6v25.6c0 .9.7 1.6 1.6 1.6h12.2c.9 0 1.6-.7 1.6-1.6v-25.6c.1-.9-.7-1.6-1.5-1.6zm.6 27.2c0 .4-.3.7-.7.7h-12.2c-.4 0-.7-.3-.7-.7v-25.6c0-.4.3-.7.7-.7h12.2c.4 0 .7.3.7.7zm-6.8-40.2c-15.4 0-28 12.5-28 28 0 11.7 7.3 22.2 18.2 26.3 0 0 .2.1.4.1v.3c.4 3 3.1 5.2 6.1 5.2h7.6c.3 0 .6-.3.6-.6v-2.7h4.6c.4 0 .7-.3.7-.7s-.3-.7-.7-.7h-4.6v-2.5h4.6c.4 0 .7-.3.7-.7s-.3-.7-.7-.7h-4.6v-2.7c0-.3-.3-.6-.6-.6h-7.7c-3 0-5.4 2.2-5.9 5-10.3-3.9-17.3-13.9-17.3-25 0-14.7 12-26.6 26.6-26.6s26.6 12 26.6 26.6c0 8.7-4.3 16.9-11.3 21.8-.1.1-.2.2-.2.3v1.4c8-5.1 12.9-14.1 12.9-23.6.1-15.4-12.5-27.9-28-27.9zm-3.4 49.4h6.7c.1 0 .2.1.2.2v8.7c0 .1-.1.2-.2.2h-6.5c-2.4 0-4.5-1.7-4.8-4.1-.2-2.7 1.9-5 4.6-5z"/></svg>