<svg xmlns="http://www.w3.org/2000/svg" viewBox="0 0 60 60"><path fill="#000000" d="M34.2 30.1l-9.5 2.6c-.1 0-.1.1-.1.2v4.4c0 .1.1.2.3.2l9.5-2.6c.1 0 .1-.1.1-.2v-4.4c0-.1-.1-.2-.3-.2zm0 6.4L25.1 39c-.1 0-.1.1 0 .1h8.7c.4 0 .7-.3.7-.7v-1.7c0-.1-.2-.2-.3-.2zm0-12.8l-9.4 2.6c-.1 0-.2.1-.2.2v4.4c0 .1.2.2.3.2l9.4-2.6c.1 0 .2-.1.2-.2v-4.4c0-.2-.2-.3-.3-.2zm0-6.4l-9.4 2.6c-.1 0-.2.1-.2.2v4.4c0 .1.2.2.3.2l9.4-2.6c.1 0 .2-.1.2-.2v-4.4c0-.2-.2-.3-.3-.2zm-9.3.9l9.1-2.5c.1 0 .1-.1 0-.1h-8.8c-.3 0-.6.3-.6.6V18c0 .1.2.2.3.2zM35.7 13h-3.1v-1.1c0-.3-.2-.5-.5-.5H27c-.3 0-.5.2-.5.5V13h-3.1c-.9 0-1.6.7-1.6 1.6v25.6c0 .9.7 1.6 1.6 1.6h12.2c.9 0 1.6-.7 1.6-1.6V14.6c.1-.9-.7-1.6-1.5-1.6zm.6 27.2c0 .4-.3.7-.7.7H23.4c-.4 0-.7-.3-.7-.7V14.6c0-.4.3-.7.7-.7h12.2c.4 0 .7.3.7.7v25.6zM29.5 0c-15.4 0-28 12.5-28 28 0 11.7 7.3 22.2 18.2 26.3 0 0 .2.1.4.1v.3c.4 3 3.1 5.2 6.1 5.2h7.6c.3 0 .6-.3.6-.6v-2.7H39c.4 0 .7-.3.7-.7s-.3-.7-.7-.7h-4.6v-2.5H39c.4 0 .7-.3.7-.7s-.3-.7-.7-.7h-4.6v-2.7c0-.3-.3-.6-.6-.6h-7.7c-3 0-5.4 2.2-5.9 5C9.9 49.1 2.9 39.1 2.9 28c0-14.7 12-26.6 26.6-26.6s26.6 12 26.6 26.6c0 8.7-4.3 16.9-11.3 21.8-.1.1-.2.2-.2.3v1.4c8-5.1 12.9-14.1 12.9-23.6C57.6 12.5 45 0 29.5 0zm-3.4 49.4h6.7c.1 0 .2.1.2.2v8.7c0 .1-.1.2-.2.2h-6.5c-2.4 0-4.5-1.7-4.8-4.1-.2-2.7 1.9-5 4.6-5z"/></svg>
